<?xml version="1.0" encoding="UTF-8"?>
<svg version="1.1" viewBox="0 0 1563 1563" width="1280" height="1280" xmlns="http://www.w3.org/2000/svg">
<path transform="translate(0)" d="m0 0h1563v1563h-1563z" fill="#F5F5F6"/>
<path transform="translate(496,469)" d="m0 0h89l6 3 5 6 2 8 4 55 29 10 20 9 3 2-1 5-14 18-21 28-4 4-10-3-18-6-20-4-7-1h-36l-24 4-20 6-16 7-17 9-14 10-10 8-11 10-9 11-9 12-8 13-8 16-7 18-6 25-2 20v17l2 21 5 22 7 20 8 16 7 12 8 11 8 10 7 8 2 1v2l4 2 10 9 16 11 16 9 20 8 21 6 20 3h35l24-4 23-7 9-3 8 9 21 28 10 13 1 5-16 8-18 7-18 6-4 54-2 9-6 7-4 2h-91l-6-4-4-5-2-9-4-54-32-11-23-11-7-4-5 1-10 9-11 9-12 11-10 8-5 2h-8l-6-3-60-60-3-6v-9l3-6 13-15 24-28-1-5-10-19-9-23-6-19-56-4-9-3-6-7-1-3v-89l3-6 6-5 7-2 57-4 2-10 7-20 9-20 7-13-1-4-7-8-24-28-7-9-1-3v-9l4-7 59-59 6-3h8l8 4 13 12 11 9 13 12 4 3 6-1 23-12 28-10 9-3 4-53 2-10 6-7z" fill="#38B6FE"/>
<path transform="translate(998,645)" d="m0 0h10l15 3 10 5 8 7 3 3 2-14h34v50h-36l-2-9-4-6-5-4-8-3h-11l-6 3-2 3v7l5 5 14 6 23 8 16 8 11 8 6 9 3 9v13l-4 13-8 10-11 7-11 4-12 2h-14l-13-3-12-6-9-8-2 9-1 5h-35v-50h37l4 11 7 5 12 3 12-1 5-3 2-6-1-4-5-2-35-11-16-8-9-7-6-8-4-10v-19l5-12 7-8 7-6 11-5z" fill="#545454"/>
<path transform="translate(475,649)" d="m0 0h135v52h-29l-1-25h-16l-1 86h17v27h-74v-27h16v-87h-17v26h-30z" fill="#545454"/>
<path transform="translate(1144,686)" d="m0 0 14 1 14 4 12 7 7 7 6 10 4 11 1 6v16l-3 12-6 11-7 8-11 7-11 4-5 1h-23l-14-4-12-7-9-9-7-13-2-8v-21l4-13 7-11 10-9 14-7 8-2z" fill="#545454"/>
<path transform="translate(1276,689)" d="m0 0h99v26l-32 32-7 8-7 7 20 1v-14h28v40h-101v-27l22-22h2v-2l8-7 15-15 1-2h-22v15h-26z" fill="#545454"/>
<path transform="translate(660,686)" d="m0 0h16l13 3 10 5 10 9 4 5 4 9 2 14-1 13-2 5h-63l5 10 5 4 3 1h18l11-4 7-4 7 7 9 11-2 4-13 8-15 5-6 1h-26l-15-5-10-7-7-7-7-14-3-14v-13l3-14 6-11 9-10 12-7z" fill="#545454"/>
<path transform="translate(759,686)" d="m0 0 11 1 12 5 6 5 2 3 2-11h25v36h-26l-3-7-6-5-10-3-7 2-1 1v6l6 4 29 10 10 6 7 7 3 7v16l-4 8-7 7-10 5-7 2h-17l-11-4-8-6-3-3-2 11h-25v-36h27l3 7 7 4 4 1h12l3-3-1-5-9-4-21-6-10-5-9-8-4-8-1-3v-14l5-10 8-7 9-4z" fill="#545454"/>
<path transform="translate(1210,639)" d="m0 0h46v124h12v26h-59v-26h9v-99h-8z" fill="#545454"/>
<path transform="translate(871,659)" d="m0 0h3l1 29 18 1v26h-19l1 45 2 5 6 1 10-2v25l-12 3h-23l-10-4-6-7-3-8-1-7v-51h-11v-26h11v-19z" fill="#545454"/>
<path transform="translate(665,862)" d="m0 0h22l8 3 4 5 1 2-1 9-5 5v2l5 4 2 4v8l-4 6-8 4h-24z" fill="#545454"/>
<path transform="translate(1150,873)" d="m0 0h12l8 5 2-5h6v41h-7l-1-5-5 4-10 2-9-3-5-4-4-9v-11l3-7 4-5z" fill="#545454"/>
<path transform="translate(523,862)" d="m0 0h6l3 9 8 31 1 2 12-42h8l11 40 1 2 11-42h7l-2 10-12 41-1 1h-7l-5-15-7-25-8 25-4 14-1 1h-7l-3-8-11-40z" fill="#545454"/>
<path transform="translate(1144,712)" d="m0 0 7 1 5 4 4 9 1 4v18l-3 10-4 6-4 2h-6l-7-6-4-11-1-11 2-13 4-8z" fill="#F5F5F6"/>
<path transform="translate(893,873)" d="m0 0h12l6 3 6 7 1 3v10h-32l2 7 4 4 3 1h8l6-4 1-2h7l-2 5-5 5-4 2h-14l-8-5-4-6-1-4v-11l3-7 4-5z" fill="#545454"/>
<path transform="translate(805,873)" d="m0 0h12l6 3 6 7 1 3v10h-32l2 7 4 4 3 1h8l6-4 1-2h7l-2 5-5 5-4 2h-14l-8-5-4-6-1-4v-11l3-7 4-5z" fill="#545454"/>
<path transform="translate(722,873)" d="m0 0h12l6 3 6 7 2 10-1 3h-32l3 8 6 4h8l5-3 2-3h7l-2 6-5 4-4 2-7 1-9-2-6-4-4-7-1-4v-9l3-8 5-5z" fill="#545454"/>
<path transform="translate(611,873)" d="m0 0h12l8 5 4 6 1 3v9h-33l4 9 6 3h8l5-3 2-3h7l-3 6-6 5-10 2-9-2-7-6-3-7v-13l4-8 5-4z" fill="#545454"/>
<path transform="translate(1050,862)" d="m0 0h13l9 4 8 9 2 6v14l-4 9-6 6 2 4 9 9v1h-9l-9-9-15-1-9-4-8-9-2-6v-14l4-9 9-8zm3 5-7 3-5 4-4 10v8l4 10 8 6 4 1h7l7-3 5-4 4-10v-8l-4-10-8-6-4-1z" fill="#545454"/>
<path transform="translate(1155,878)" d="m0 0 8 1 7 6 1 3v11l-3 5-5 4-9 1-7-4-3-5-1-8 2-7 5-5z" fill="#F3F5F6"/>
<path transform="translate(1092,873)" d="m0 0h6l1 28 3 5 4 2h7l5-3 2-4 1-28h7v41h-7l-1-4-6 4h-12l-6-4-4-6-1-30z" fill="#545454"/>
<path transform="translate(1249,873)" d="m0 0h7l5 12 8 20 12-31 1-1h6l-1 5-20 49-3 6h-7l7-18-1-6-14-34z" fill="#545454"/>
<path transform="translate(966,873)" d="m0 0h6l1 5 4-4 3-1h11l7 4 3 5 1 4v28h-7l-1-29-4-5-9-1-6 2-2 7-1 26h-6z" fill="#545454"/>
<path transform="translate(835,873)" d="m0 0h7l12 32 1 1 12-33h7l-3 10-12 31h-8l-4-8-12-31z" fill="#545454"/>
<path transform="translate(1228,863)" d="m0 0h6v10h11v6h-11l1 26 1 2 9 1v6h-9l-5-2-3-4v-29h-5v-6h5z" fill="#545454"/>
<path transform="translate(664,713)" d="m0 0h10l6 3 3 4 1 9h-30l1-7 4-6z" fill="#F5F5F6"/>
<path transform="translate(672,890)" d="m0 0h16l5 3 2 5-1 6-5 4-4 1h-13z" fill="#F2F4F6"/>
<path transform="translate(948,862)" d="m0 0h6v52h-7v-51z" fill="#545454"/>
<path transform="translate(1190,859)" d="m0 0h6v55h-6z" fill="#545454"/>
<path transform="translate(757,859)" d="m0 0h6v55h-6z" fill="#545454"/>
<path transform="translate(672,868)" d="m0 0h16l5 4v8l-4 4-4 1h-13z" fill="#F5F5F6"/>
<path transform="translate(1208,873)" d="m0 0h6l1 1v40h-7z" fill="#545454"/>
<path transform="translate(775,873)" d="m0 0h6l1 1v40h-7z" fill="#545454"/>
<path transform="translate(896,878)" d="m0 0 9 1 5 4 2 7-1 1h-25l1-7 6-5z" fill="#F3F5F6"/>
<path transform="translate(808,878)" d="m0 0 9 1 5 4 2 7-1 1h-25l1-7 6-5z" fill="#F3F5F6"/>
<path transform="translate(725,878)" d="m0 0 9 1 5 4 2 5v3h-26l1-6 4-5z" fill="#F5F5F6"/>
<path transform="translate(613,878)" d="m0 0h7l7 4 2 4v5h-25l-1-2 4-8z" fill="#F1F4F6"/>
<path transform="translate(1209,858)" d="m0 0h5l2 2-1 5-1 1h-5l-2-2 1-5z" fill="#545454"/>
<path transform="translate(776,858)" d="m0 0h5l2 2-1 5-1 1h-5l-2-2 1-5z" fill="#545454"/>
</svg>
